# xmcd
#
# Track frame offsets:
#	150
#	14577
#	25477
#	37304
#	53884
#	67859
#	80574
#	95855
#	105042
#	117086
#	127743
#	143232
#	149703
#	161984
#	169589
#	185148
#	194678
#	206346
#	213994
#	227513
#	237370
#	243034
#
# Disc length: 3324 seconds
#
# Revision: 1
# Processed by: cddbd v1.5.2PL0 Copyright (c) Steve Scherf et al.
# Submitted via: FairStars CD Ripper 2.00
#
DISCID=3e0cfa16
DTITLE=Andy J Forest - Word Shadows and Ghost Notes
DYEAR=2015
DGENRE=Acoustic Blues
TTITLE0=Bartender Friend
TTITLE1=Word Shadows
TTITLE2=Bulletproof Bible
TTITLE3=Fine Day For a Funeral
TTITLE4=Ella Dora
TTITLE5=More Love
TTITLE6=Last Goodbye
TTITLE7=Hummingbird
TTITLE8=Was That Me?
TTITLE9=Breach in the Levee
TTITLE10=Bywater
TTITLE11=I Wanna Know You
TTITLE12=Let 'em Die
TTITLE13=Rusty Rainbow
TTITLE14=$10 Bill
TTITLE15=But First
TTITLE16=Take a Look
TTITLE17=When You Left Me
TTITLE18=Trailerless Man
TTITLE19=Honey I'm Home
TTITLE20=Elevator Song
TTITLE21=Chrombalt Blue
EXTD=
EXTT0=
EXTT1=
EXTT2=
EXTT3=
EXTT4=
EXTT5=
EXTT6=
EXTT7=
EXTT8=
EXTT9=
EXTT10=
EXTT11=
EXTT12=
EXTT13=
EXTT14=
EXTT15=
EXTT16=
EXTT17=
EXTT18=
EXTT19=
EXTT20=
EXTT21=
PLAYORDER=
